<svg width="20" height="20" viewBox="0 0 20 20" fill="none" xmlns="http://www.w3.org/2000/svg">
<g opacity="0.75">
<path d="M5.66663 15.8334V4.16675H10.2708C11.1736 4.16675 12.0069 4.44453 12.7708 5.00008C13.5347 5.55564 13.9166 6.32647 13.9166 7.31258C13.9166 8.02092 13.7569 8.56605 13.4375 8.948C13.118 9.32994 12.8194 9.60425 12.5416 9.77092C12.8888 9.92369 13.2743 10.2084 13.6979 10.6251C14.1215 11.0417 14.3333 11.6667 14.3333 12.5001C14.3333 13.7362 13.8819 14.6008 12.9791 15.0938C12.0763 15.5869 11.2291 15.8334 10.4375 15.8334H5.66663ZM8.18746 13.5001H10.3541C11.0208 13.5001 11.427 13.3299 11.5729 12.9897C11.7187 12.6494 11.7916 12.4029 11.7916 12.2501C11.7916 12.0973 11.7187 11.8508 11.5729 11.5105C11.427 11.1702 11 11.0001 10.2916 11.0001H8.18746V13.5001ZM8.18746 8.75008H10.125C10.5833 8.75008 10.9166 8.63203 11.125 8.39592C11.3333 8.1598 11.4375 7.89591 11.4375 7.60425C11.4375 7.27091 11.3194 7.00008 11.0833 6.79175C10.8472 6.58341 10.5416 6.47925 10.1666 6.47925H8.18746V8.75008Z" fill="#1D1B20"/>
</g>
</svg>
