<?xml version="1.0" encoding="UTF-8"?>
<!DOCTYPE svg PUBLIC "-//W3C//DTD SVG 1.1//EN" "http://www.w3.org/Graphics/SVG/1.1/DTD/svg11.dtd">
<svg xmlns="http://www.w3.org/2000/svg" version="1.1" width="1254px" height="1254px" style="shape-rendering:geometricPrecision; text-rendering:geometricPrecision; image-rendering:optimizeQuality; fill-rule:evenodd; clip-rule:evenodd" xmlns:xlink="http://www.w3.org/1999/xlink">
<g><path style="opacity:1" fill="#000000" d="M 625.5,139.5 C 651.356,138.687 676.689,141.854 701.5,149C 739.817,164.318 767.317,190.818 784,228.5C 793.298,258.421 790.298,287.088 775,314.5C 744.836,366 702.67,404.167 648.5,429C 636.761,433.268 624.761,436.602 612.5,439C 577.557,444.076 542.557,448.743 507.5,453C 459.052,460.696 411.386,471.696 364.5,486C 333.926,495.939 319.259,517.106 320.5,549.5C 321.942,573.937 327.776,597.27 338,619.5C 349.941,645.048 361.607,670.714 373,696.5C 384.087,723.503 382.754,749.836 369,775.5C 361.791,787.771 351.125,794.771 337,796.5C 326.716,795.227 318.716,790.227 313,781.5C 305.086,767.425 299.753,752.425 297,736.5C 290.882,700.46 284.549,664.46 278,628.5C 274.959,614.705 269.959,601.705 263,589.5C 258.882,582.21 252.715,577.876 244.5,576.5C 238.45,577.713 233.95,581.046 231,586.5C 226.284,597.675 224.117,609.342 224.5,621.5C 231.286,703.741 260.453,776.741 312,840.5C 326.25,856.085 341.75,870.252 358.5,883C 376.999,895.419 395.999,907.086 415.5,918C 437.7,931.852 457.867,948.352 476,967.5C 487.626,980.417 495.292,995.417 499,1012.5C 502.013,1037.83 490.846,1051.49 465.5,1053.5C 450.749,1052.42 436.749,1048.58 423.5,1042C 297.703,975.499 216.203,873.332 179,735.5C 144.366,591.682 168.033,458.349 250,335.5C 330.413,224.338 439.246,160.505 576.5,144C 592.957,142.159 609.29,140.659 625.5,139.5 Z M 592.5,168.5 C 609.868,168.122 627.201,168.622 644.5,170C 686.223,176.091 716.39,197.924 735,235.5C 745.776,268.751 742.109,300.418 724,330.5C 697.635,372.183 661.135,401.349 614.5,418C 598.776,423.352 582.776,427.686 566.5,431C 486.733,444.487 407.4,460.153 328.5,478C 314.892,480.385 303.392,486.552 294,496.5C 286.515,509.264 285.515,522.597 291,536.5C 304.891,580.509 320.558,623.843 338,666.5C 342.145,677.601 345.478,688.934 348,700.5C 350.229,712.249 349.896,723.915 347,735.5C 340.108,749.663 332.441,749.996 324,736.5C 317.279,724.06 311.946,711.06 308,697.5C 303.737,671.184 298.07,645.184 291,619.5C 285.939,601.048 277.939,584.048 267,568.5C 258.344,557.412 247.177,552.912 233.5,555C 224.692,558.474 218.526,564.641 215,573.5C 209.806,586.667 207.639,600.333 208.5,614.5C 214.71,709.365 248.877,792.365 311,863.5C 322.229,875.398 334.063,886.565 346.5,897C 366.409,911.572 385.742,926.905 404.5,943C 415.729,952.551 424.229,964.051 430,977.5C 434.413,998.087 426.246,1006.59 405.5,1003C 388.759,997.63 373.426,989.63 359.5,979C 266.529,906.64 209.029,812.14 187,695.5C 167.025,556.817 200.358,432.817 287,323.5C 351.038,249.201 431.205,201.034 527.5,179C 549.138,174.393 570.805,170.893 592.5,168.5 Z"/></g>
<g><path style="opacity:1" fill="#000000" d="M 821.5,183.5 C 839.544,182.791 856.211,187.291 871.5,197C 890.309,209.137 907.976,222.803 924.5,238C 953.021,264.326 978.855,292.826 1002,323.5C 1009.13,333.984 1015.47,344.984 1021,356.5C 1030.03,380.715 1029.36,404.715 1019,428.5C 1009.62,449.092 996.449,466.925 979.5,482C 968.375,491.726 956.708,500.726 944.5,509C 906.5,533 868.5,557 830.5,581C 800.649,600.505 772.816,622.671 747,647.5C 702.126,696.548 670.126,753.215 651,817.5C 636.911,862.456 630.578,908.456 632,955.5C 635.35,973.351 645.85,984.518 663.5,989C 681.042,991.633 698.375,990.633 715.5,986C 735.637,979.732 755.637,973.066 775.5,966C 799.609,957.911 824.276,952.245 849.5,949C 859.5,948.333 869.5,948.333 879.5,949C 892.504,949.753 903.337,954.92 912,964.5C 917.743,974.391 917.743,984.391 912,994.5C 900.833,1011 887,1024.83 870.5,1036C 799.116,1084.68 720.116,1108.35 633.5,1107C 611.415,1105.85 590.415,1100.52 570.5,1091C 548.266,1077.09 533.099,1057.59 525,1032.5C 509.47,987.731 503.803,941.731 508,894.5C 518.121,787.97 558.454,694.97 629,615.5C 674.059,567.798 727.226,531.965 788.5,508C 825.699,495.067 861.699,479.4 896.5,461C 912,452.167 924.167,440 933,424.5C 938.586,410.967 938.92,397.3 934,383.5C 925.546,358.407 912.379,336.24 894.5,317C 886.82,312.324 882.32,314.49 881,323.5C 876.073,364.134 868.073,404.134 857,443.5C 845.614,469.563 825.78,481.397 797.5,479C 789.358,475.561 785.025,469.394 784.5,460.5C 785.01,455.774 785.843,451.108 787,446.5C 798.315,419.556 808.649,392.222 818,364.5C 825.074,342.72 828.908,320.387 829.5,297.5C 829.364,281.017 826.531,265.017 821,249.5C 816,238.833 811,228.167 806,217.5C 799.618,200.61 804.785,189.276 821.5,183.5 Z"/></g>
<g><path style="opacity:1" fill="#000000" d="M 594.5,257.5 C 606.625,256.893 618.625,257.726 630.5,260C 662.422,272.102 669.922,292.935 653,322.5C 632.356,346.409 606.189,360.243 574.5,364C 557.549,366.689 541.549,364.022 526.5,356C 510.352,343.87 506.186,328.37 514,309.5C 522.888,292.279 536.055,279.445 553.5,271C 566.591,264.358 580.258,259.858 594.5,257.5 Z"/></g>
<g><path style="opacity:1" fill="#000000" d="M 755.5,385.5 C 771.11,383.776 778.777,390.776 778.5,406.5C 777.789,419.466 773.956,431.466 767,442.5C 752.308,465.194 734.141,484.694 712.5,501C 686.177,519.163 659.51,536.83 632.5,554C 551.781,608.816 503.281,684.649 487,781.5C 481.128,816.333 479.961,851.333 483.5,886.5C 484.391,895.943 482.891,904.943 479,913.5C 472.906,922.132 465.406,923.632 456.5,918C 444.221,905.721 431.887,893.387 419.5,881C 406.857,869.88 392.19,862.547 375.5,859C 358.38,852.052 348.046,839.552 344.5,821.5C 347.006,807.512 355.506,800.512 370,800.5C 374.551,801.064 379.051,801.897 383.5,803C 394.283,807.89 404.616,813.557 414.5,820C 419.807,822.676 424.307,821.843 428,817.5C 430.822,809.891 430.822,802.224 428,794.5C 419.863,773.088 411.529,751.754 403,730.5C 397.687,711.248 392.687,691.914 388,672.5C 378.734,644.105 370.401,615.438 363,586.5C 357.982,568.394 356.649,550.061 359,531.5C 364.764,512.203 377.264,505.37 396.5,511C 410.616,519.13 420.45,530.963 426,546.5C 431.875,565.003 438.208,583.337 445,601.5C 447.448,605.615 450.281,609.448 453.5,613C 457.351,615.497 460.184,614.663 462,610.5C 462.988,607.576 463.654,604.576 464,601.5C 464.228,593.472 464.728,585.472 465.5,577.5C 465.221,565.977 468.387,555.31 475,545.5C 486.439,531.727 498.939,518.893 512.5,507C 533.154,492.678 555.821,482.678 580.5,477C 598.862,473.128 617.195,469.128 635.5,465C 656.925,457.958 676.259,447.291 693.5,433C 707.576,419.586 722.243,406.919 737.5,395C 743.15,391.01 749.15,387.843 755.5,385.5 Z M 724.5,430.5 C 734.834,429.692 738.334,434.359 735,444.5C 732.048,454.41 727.048,463.077 720,470.5C 709.496,481.484 698.329,491.65 686.5,501C 663.007,517.58 639.341,533.913 615.5,550C 576.204,577.628 543.371,611.462 517,651.5C 493.069,693.38 476.402,738.046 467,785.5C 462.122,809.314 458.455,833.314 456,857.5C 454.638,867.599 449.471,870.766 440.5,867C 435.533,863.034 430.866,858.701 426.5,854C 415.391,846.44 403.057,843.44 389.5,845C 376.692,841.208 370.526,832.708 371,819.5C 371.465,818.069 372.299,816.903 373.5,816C 377.261,815.262 380.928,815.595 384.5,817C 394.167,822.667 403.833,828.333 413.5,834C 428.629,838.936 438.962,833.936 444.5,819C 447.322,809.028 446.822,799.194 443,789.5C 420.117,718.636 398.784,647.303 379,575.5C 377.176,566.755 376.01,557.921 375.5,549C 375.518,543.244 376.684,537.744 379,532.5C 384.554,527.418 390.387,527.252 396.5,532C 401.442,536.714 405.275,542.214 408,548.5C 411.066,556.363 413.732,564.363 416,572.5C 420.068,592.713 423.402,613.047 426,633.5C 428.467,646.958 435.301,657.458 446.5,665C 461.713,670.263 474.546,666.763 485,654.5C 487.333,650.833 489.667,647.167 492,643.5C 504.079,611.594 516.746,579.928 530,548.5C 542.112,520.389 562.612,501.223 591.5,491C 604.745,487.022 618.079,483.355 631.5,480C 658.978,471.097 683.978,457.764 706.5,440C 712.435,436.535 718.435,433.368 724.5,430.5 Z"/></g>
<g><path style="opacity:1" fill="#000000" d="M 1052.5,429.5 C 1057.87,428.937 1062.04,430.937 1065,435.5C 1080.88,467.658 1090.54,501.658 1094,537.5C 1108.71,656.972 1086.37,768.972 1027,873.5C 1011.69,900.936 992.854,925.77 970.5,948C 962.521,955.215 953.188,958.215 942.5,957C 934.426,953.92 929.593,948.087 928,939.5C 927.359,923.266 928.192,907.1 930.5,891C 930.809,886.067 929.642,881.567 927,877.5C 921.488,887.19 916.488,897.19 912,907.5C 898.532,930.547 879.032,938.047 853.5,930C 845.233,927.115 842.4,921.615 845,913.5C 875.803,864.678 885.47,812.011 874,755.5C 868.334,733.172 858.668,712.839 845,694.5C 832.667,679.5 820.333,664.5 808,649.5C 798.951,635.016 801.117,622.516 814.5,612C 833.636,600.624 853.302,599.624 873.5,609C 900.012,622.847 918.845,643.681 930,671.5C 932.864,679.092 935.531,686.758 938,694.5C 943.319,719.763 949.652,744.763 957,769.5C 958.893,774.287 961.06,778.953 963.5,783.5C 965.656,785.938 967.989,786.105 970.5,784C 983.403,762.287 990.903,738.787 993,713.5C 993.181,704.589 993.681,695.755 994.5,687C 991.838,655.876 989.005,624.71 986,593.5C 983.429,569.056 984.096,544.723 988,520.5C 992.24,500.02 1001.24,482.02 1015,466.5C 1027.4,453.937 1039.9,441.604 1052.5,429.5 Z"/></g>
<g><path style="opacity:1" fill="#000000" d="M 759.5,689.5 C 801.787,688.264 829.287,707.93 842,748.5C 849.681,777.007 852.348,806.007 850,835.5C 844.463,878.755 823.963,912.922 788.5,938C 761.022,957.883 730.356,969.383 696.5,972.5C 674.046,972.517 659.879,961.85 654,940.5C 650.071,899.878 659.738,862.878 683,829.5C 691.271,819.895 700.771,811.729 711.5,805C 723.095,799.024 735.095,794.024 747.5,790C 754.617,787.218 759.284,782.218 761.5,775C 761.302,771.599 759.635,769.266 756.5,768C 753.5,767.333 750.5,767.333 747.5,768C 736.747,772.042 726.081,772.042 715.5,768C 707.899,763.138 703.899,756.138 703.5,747C 708.507,714.493 727.174,695.326 759.5,689.5 Z M 758.5,831.5 C 771.659,830.041 783.992,832.541 795.5,839C 810.518,851.616 812.018,865.783 800,881.5C 781.798,900.934 759.131,911.267 732,912.5C 717.32,913.395 705.653,908.062 697,896.5C 692.402,887.862 692.402,879.195 697,870.5C 703.453,859.713 711.953,850.88 722.5,844C 734.054,838.382 746.054,834.215 758.5,831.5 Z"/></g>
</svg>
