<svg width="100" height="100" viewBox="0 0 100 100" fill="none" xmlns="http://www.w3.org/2000/svg">
<path d="M50 0L57.1178 5.06018L65.4509 2.44717L70.6566 9.4592L79.3893 9.54915L82.1734 17.8266L90.4509 20.6107L90.5408 29.3434L97.5528 34.5491L94.9398 42.8822L100 50L94.9398 57.1178L97.5528 65.4509L90.5408 70.6566L90.4509 79.3893L82.1734 82.1734L79.3893 90.4509L70.6566 90.5408L65.4509 97.5528L57.1178 94.9398L50 100L42.8822 94.9398L34.5491 97.5528L29.3434 90.5408L20.6107 90.4509L17.8266 82.1734L9.54915 79.3893L9.4592 70.6566L2.44717 65.4509L5.06018 57.1178L0 50L5.06018 42.8822L2.44717 34.5491L9.4592 29.3434L9.54915 20.6107L17.8266 17.8266L20.6107 9.54915L29.3434 9.4592L34.5491 2.44717L42.8822 5.06018L50 0Z" fill="black"/>
</svg>
