<svg width="292" height="292" viewBox="0 0 292 292" fill="none" xmlns="http://www.w3.org/2000/svg">
<path d="M287.861 134.679C292.547 141.27 292.547 150.106 287.861 156.697L285.975 159.351C282.53 164.195 281.552 170.373 283.331 176.045L284.305 179.152C286.725 186.868 283.994 195.271 277.501 200.092L274.886 202.033C270.114 205.576 267.274 211.149 267.213 217.093L267.18 220.349C267.096 228.436 261.903 235.584 254.238 238.162L251.151 239.2C245.517 241.095 241.095 245.517 239.2 251.151L238.162 254.238C235.584 261.903 228.436 267.096 220.349 267.18L217.093 267.213C211.149 267.274 205.576 270.114 202.033 274.886L200.092 277.501C195.271 283.994 186.868 286.725 179.152 284.305L176.045 283.331C170.373 281.552 164.195 282.53 159.351 285.975L156.697 287.861C150.105 292.547 141.27 292.547 134.679 287.861L132.025 285.975C127.18 282.53 121.003 281.552 115.331 283.331L112.224 284.305C104.507 286.725 96.1044 283.994 91.2837 277.501L89.3427 274.886C85.7994 270.114 80.2268 267.274 74.2829 267.213L71.0269 267.18C62.94 267.096 55.7921 261.903 53.2139 254.238L52.1759 251.151C50.2809 245.517 45.8584 241.095 40.2244 239.2L37.1381 238.162C29.4727 235.584 24.2795 228.436 24.1962 220.349L24.1627 217.093C24.1014 211.149 21.262 205.576 16.4893 202.033L13.8749 200.092C7.38139 195.271 4.65114 186.868 7.0709 179.152L8.04517 176.045C9.8237 170.373 8.8453 164.195 5.40112 159.351L3.51442 156.697C-1.17154 150.105 -1.17154 141.27 3.51442 134.679L5.40111 132.025C8.8453 127.18 9.8237 121.003 8.04517 115.331L7.07091 112.224C4.65114 104.507 7.38139 96.1044 13.8749 91.2836L16.4893 89.3427C21.262 85.7994 24.1014 80.2268 24.1627 74.2829L24.1962 71.0269C24.2795 62.94 29.4727 55.7921 37.1381 53.2139L40.2244 52.1759C45.8584 50.2809 50.2809 45.8584 52.1759 40.2243L53.2139 37.1381C55.7921 29.4727 62.94 24.2795 71.0269 24.1962L74.2829 24.1627C80.2268 24.1014 85.7995 21.262 89.3427 16.4893L91.2837 13.8749C96.1044 7.38139 104.507 4.65114 112.224 7.0709L115.331 8.04517C121.003 9.8237 127.18 8.8453 132.025 5.40112L134.679 3.51442C141.27 -1.17154 150.106 -1.17154 156.697 3.51442L159.351 5.40111C164.195 8.8453 170.373 9.8237 176.045 8.04517L179.152 7.07091C186.868 4.65114 195.271 7.38139 200.092 13.8749L202.033 16.4893C205.576 21.262 211.149 24.1014 217.093 24.1627L220.349 24.1962C228.436 24.2795 235.584 29.4727 238.162 37.1381L239.2 40.2244C241.095 45.8584 245.517 50.2809 251.151 52.1759L254.238 53.2139C261.903 55.7921 267.096 62.94 267.18 71.0269L267.213 74.2829C267.274 80.2268 270.114 85.7994 274.886 89.3427L277.501 91.2837C283.994 96.1044 286.725 104.507 284.305 112.224L283.331 115.331C281.552 121.003 282.53 127.18 285.975 132.025L287.861 134.679Z" fill="#D9D9D9"/>
</svg>
